<svg width="279" height="72" viewBox="0 0 279 72" fill="none" xmlns="http://www.w3.org/2000/svg">
<path d="M65.9019 11.8128C64.8852 10.7949 63.6789 10.2859 62.2861 10.2859H57.1439V6.42863C57.1439 4.66111 56.5138 3.14761 55.2551 1.88868C53.9956 0.629747 52.4829 0 50.7145 0H48.1438C46.3755 0 44.8623 0.629747 43.6034 1.88882C42.344 3.14761 41.7146 4.66125 41.7146 6.42877V10.2861H26.2868V6.42877C26.2868 4.66125 25.6571 3.14775 24.398 1.88882C23.1392 0.629747 21.6259 0 19.8576 0H17.2864C15.5186 0 14.0051 0.629747 12.7461 1.88882C11.4873 3.14761 10.8574 4.66125 10.8574 6.42877V10.2861H5.715C4.32182 10.2861 3.11664 10.7951 2.09877 11.8129C1.0809 12.8307 0.571899 14.0364 0.571899 15.4292V66.8577C0.571899 68.2495 1.0809 69.455 2.09877 70.4734C3.1165 71.491 4.32167 72.0001 5.715 72.0001H62.2851C63.6779 72.0001 64.8843 71.4911 65.9009 70.4734C66.919 69.4554 67.4281 68.2494 67.4281 66.8577V15.429C67.428 14.0358 66.9194 12.8307 65.9019 11.8128ZM46.8581 6.42919C46.8581 6.05387 46.9776 5.74554 47.2184 5.50504C47.4591 5.26426 47.7673 5.14366 48.1429 5.14366H50.7137C51.0894 5.14366 51.3966 5.26384 51.6383 5.50504C51.8792 5.74597 51.9995 6.0543 51.9995 6.42919V18.0002C51.9995 18.3754 51.8792 18.6832 51.6383 18.9244C51.3965 19.1649 51.0894 19.2857 50.7137 19.2857H48.1429C47.7673 19.2857 47.4591 19.1654 47.2184 18.9244C46.9776 18.683 46.8581 18.3754 46.8581 18.0002V6.42919ZM16.0009 6.42919C16.0009 6.05387 16.1212 5.74554 16.3623 5.50504C16.6035 5.26426 16.9113 5.14366 17.2864 5.14366H19.8576C20.233 5.14366 20.5413 5.26384 20.7818 5.50504C21.0226 5.74597 21.1434 6.0543 21.1434 6.42919V18.0002C21.1434 18.3754 21.0231 18.6836 20.7818 18.9244C20.5407 19.1649 20.233 19.2857 19.8576 19.2857H17.2864C16.9113 19.2857 16.6031 19.1654 16.3623 18.9244C16.1218 18.683 16.0009 18.3754 16.0009 18.0002V6.42919ZM62.2851 66.857H5.715V25.7145H62.2851V66.857Z" fill="black"/>
<path d="M34.0703 55.793C35.2129 55.793 35.8867 55.0898 35.8574 53.8594L35.623 48.4102L40.6035 51.6914C40.9258 51.8965 41.3066 52.0137 41.7461 52.0137C42.6543 52.0137 43.5332 51.3105 43.5332 50.1387C43.5332 49.4062 43.1816 48.9082 42.4492 48.498L37.2051 45.6562L42.4492 42.8145C43.1816 42.4043 43.5332 41.9062 43.5332 41.1738C43.5332 40.002 42.6543 39.2988 41.7461 39.2988C41.3066 39.2988 40.9258 39.416 40.6035 39.6211L35.623 42.8145L35.8574 37.1309C35.8867 35.9004 35.2129 35.1973 34.0703 35.1973C32.8691 35.1973 32.1367 35.959 32.166 37.1309L32.4004 42.8145L27.3613 39.6211C27.0391 39.416 26.6582 39.2988 26.2187 39.2988C25.3105 39.2988 24.4316 40.002 24.4316 41.1738C24.4316 41.9062 24.7832 42.4043 25.5156 42.8145L30.7598 45.6562L25.5156 48.498C24.7832 48.9082 24.4316 49.4062 24.4316 50.1387C24.4316 51.3105 25.3105 52.0137 26.2187 52.0137C26.6582 52.0137 27.0391 51.8965 27.3613 51.6914L32.4004 48.4102L32.166 53.8594C32.1367 55.0312 32.8691 55.793 34.0703 55.793Z" fill="black"/>
<path d="M91.8789 60.5273C97.416 60.5273 102.25 57.4805 103.715 53.2617C103.861 52.793 103.949 52.3535 103.949 51.9727C103.949 50.6543 103.07 49.7461 101.752 49.7461C100.639 49.7461 100.082 50.1562 99.3496 51.5332C97.7676 54.4629 95.541 56.0449 91.8789 56.0449C86.6348 56.0449 83.0019 51.7676 83.0019 44.7656C83.0019 37.9395 86.5762 33.4863 91.8789 33.4863C95.3945 33.4863 97.709 34.9805 99.3203 37.998C100.023 39.3164 100.639 39.7852 101.752 39.7852C103.07 39.7852 103.92 38.9062 103.92 37.5586C103.92 37.2363 103.861 36.8555 103.744 36.4746C102.572 32.2559 97.5625 29.0039 91.8203 29.0039C83.3828 29.0039 77.8164 35.2441 77.8164 44.8242C77.8164 54.4629 83.4414 60.5273 91.8789 60.5273Z" fill="black"/>
<path d="M111.918 60.5273C113.412 60.5273 114.467 59.4141 114.467 57.8027V41.0742C114.467 37.1777 116.43 33.8672 121.029 33.8672C122.143 33.8672 122.934 33.6621 123.461 33.2227C123.988 32.8125 124.252 32.2266 124.252 31.4355C124.252 30.7324 124.047 30.1465 123.607 29.7363C123.109 29.2676 122.318 29.0039 121.205 29.0039C118.158 29.0039 115.17 31.3477 114.291 34.5117H114.174V31.582C114.174 30.0586 113.178 29.0039 111.771 29.0039C110.365 29.0039 109.369 30.0586 109.369 31.582V57.8027C109.369 59.4141 110.424 60.5273 111.918 60.5273Z" fill="black"/>
<path d="M139.047 60.5273C147.455 60.5273 153.139 54.4629 153.139 44.7656C153.139 35.0391 147.455 29.0039 139.047 29.0039C130.609 29.0039 124.926 35.0391 124.926 44.7656C124.926 54.4629 130.609 60.5273 139.047 60.5273ZM139.047 56.0449C133.656 56.0449 130.111 51.9434 130.111 44.7656C130.111 37.5879 133.656 33.4863 139.047 33.4863C144.438 33.4863 147.953 37.5879 147.953 44.7656C147.953 51.9434 144.438 56.0449 139.047 56.0449Z" fill="black"/>
<path d="M160.844 60.5273C162.338 60.5273 163.393 59.4141 163.393 57.8027V42.0703C163.393 36.9141 166.527 33.5156 171.332 33.5156C176.02 33.5156 178.334 36.2109 178.334 41.1328V57.8027C178.334 59.4141 179.389 60.5273 180.883 60.5273C182.377 60.5273 183.432 59.4141 183.432 57.8027V40.2246C183.432 33.3105 179.564 29.0039 172.885 29.0039C168.168 29.0039 164.916 31.1133 163.217 34.3945H163.1V31.582C163.1 30.0586 162.104 29.0039 160.697 29.0039C159.291 29.0039 158.295 30.0586 158.295 31.582V57.8027C158.295 59.4141 159.35 60.5273 160.844 60.5273Z" fill="black"/>
<path d="M202.24 71.4844C210.912 71.5723 216.303 66.6504 216.303 59.3848V31.6406C216.303 30.0586 215.219 29.0039 213.754 29.0039C212.289 29.0039 211.205 30.0586 211.205 31.6406V34.541H211.117C209.096 31.1133 205.727 29.0039 201.42 29.0039C193.539 29.0039 188.441 35.0977 188.441 44.6484C188.441 54.1113 193.539 60.2344 201.303 60.2344C205.58 60.2344 209.213 58.0664 211.088 54.7559H211.205V59.5605C211.205 64.1016 207.895 67.2363 202.445 67.1484C199.34 67.0898 197.201 65.9766 194.594 63.1055C193.803 62.2266 193.305 61.9336 192.455 61.9336C191.107 61.9336 190.17 62.8418 190.17 64.1309C190.17 64.8047 190.346 65.3906 190.756 66.0352C192.895 69.4043 197.143 71.4258 202.24 71.4844ZM202.328 55.752C197.084 55.752 193.656 51.4746 193.656 44.6484C193.656 37.8223 197.084 33.4863 202.328 33.4863C207.631 33.4863 211.205 37.9395 211.205 44.6484C211.205 51.3574 207.631 55.752 202.328 55.752Z" fill="black"/>
<path d="M235.697 60.5273C241.264 60.5273 245.541 58.1836 247.504 54.0527C247.738 53.4961 247.885 52.9688 247.885 52.5586C247.885 51.2109 246.977 50.332 245.629 50.332C244.838 50.332 244.252 50.625 243.725 51.3574C241.352 54.8145 239.125 56.1035 235.492 56.1035C230.043 56.1035 226.674 52.2949 226.674 46.1426H245.717C247.475 46.1426 248.529 45.0293 248.529 43.1836C248.529 34.834 243.051 29.0039 235.258 29.0039C226.85 29.0039 221.43 35.2734 221.43 44.8828C221.43 54.7266 226.703 60.5273 235.697 60.5273ZM226.703 42.1582C227.025 36.9141 230.424 33.4277 235.17 33.4277C239.887 33.4277 243.139 36.8848 243.256 42.1582H226.703Z" fill="black"/>
<path d="M256.234 60.5273C257.729 60.5273 258.783 59.4141 258.783 57.8027V42.0703C258.783 36.9141 261.918 33.5156 266.723 33.5156C271.41 33.5156 273.725 36.2109 273.725 41.1328V57.8027C273.725 59.4141 274.779 60.5273 276.273 60.5273C277.768 60.5273 278.822 59.4141 278.822 57.8027V40.2246C278.822 33.3105 274.955 29.0039 268.275 29.0039C263.559 29.0039 260.307 31.1133 258.607 34.3945H258.49V31.582C258.49 30.0586 257.494 29.0039 256.088 29.0039C254.682 29.0039 253.686 30.0586 253.686 31.582V57.8027C253.686 59.4141 254.74 60.5273 256.234 60.5273Z" fill="black"/>
</svg>
